{"title":"Lover of Loser-AC3-5,1-DVDRip-2009 Nederlands","uid":5284932,"size":1466324481,"categoryP":"video","categoryS":"movies","magnet":"?xt=urn:btih:7417c1d372a88192c38b5b2b72f0ffc3f5045267&amp;dn=Lover+of+Loser-AC3-5%2C1-DVDRip-2009+Nederlands&amp;tr=udp%3A%2F%2Ftracker.openbittorrent.com%3A80&amp;tr=udp%3A%2F%2Fopen.demonii.com%3A1337&amp;tr=udp%3A%2F%2Ftracker.coppersurfer.tk%3A6969&amp;tr=udp%3A%2F%2Fexodus.desync.com%3A6969","seeders":1,"leechers":1,"uploader":"FatFreddy31","files":-1,"time":1263676588,"description":" &lt;a href=&quot;http://www.imdb.com/title/tt1411277/&quot; rel=&quot;nofollow&quot; target=&quot;_NEW&quot;&gt;http://www.imdb.com/title/tt1411277/&lt;/a&gt;\n &lt;a href=&quot;\nhttp://www.moviemeter.nl/film/57499&quot; rel=&quot;nofollow&quot; target=&quot;_NEW&quot;&gt;\nhttp://www.moviemeter.nl/film/57499&lt;/a&gt;\n\nUser Rating:6.5/10 - 38 votes\n\nNederland\nDrama\n100 minuten\n\nGeregisseerd door Dave Schram\nMet Gaite Jansen, Martijn Lakemeier en Ruud Feltkamp\n\nHet zit de 15-jarige Eva (Gaite Jansen) niet mee. Met haar nieuwe stiefvader kan ze absoluut niet opschieten. Ze is bang dat hij haar wil misbruiken, maar haar moeder gelooft haar niet. Als bijverdienste ontwerpt ze T-shirts, die ze zaterdags in de printshop drukt. Op Mees (Martijn Lakemeier), de leuke jongen die daar werkt, is ze eigenlijk wel een beetje verliefd. Hij vindt haar ook erg aardig. Maar door een misverstand denkt ze dat hij al een vriendin heeft. Ze wil graag met iemand praten. Iemand die haar serieus neemt. Maar haar beste vriendin heeft daar nu geen tijd voor. Die heeft net een nieuwe vriend die haar helemaal opslokt. Als bij een optreden van een muziekband de vlotte knappe Ricardo aandacht aan haar besteedt, is ze al snel helemaal verloren. Hij pakt haar helemaal in met leuke kleren en wil haar zelfs voorstellen aan een bekende Parijse modeontwerper. Mees vindt het maar niets.\n\nInfo:\n\nCovers bijgesloten\n\nGeneral\nComplete name                    : Lover of Losers-AC3-5,1-DVDRip-2009 Nederlands.avi\nFormat                           : AVI\nFormat/Info                      : Audio Video Interleave\nFile size                        : 1.36 GiB\nDuration                         : 1h 42mn\nOverall bit rate                 : 1 906 Kbps\nWriting application              : VirtualDubMod 1.5.4.1 (build 2178/release)\nWriting library                  : VirtualDubMod build 2178/release\n\nVideo\nID                               : 0\nFormat                           : MPEG-4 Visual\nFormat profile                   : Simple@L3\nFormat settings, BVOP            : No\nFormat settings, QPel            : No\nFormat settings, GMC             : No warppoints\nFormat settings, Matrix          : Default (H.263)\nCodec ID                         : XVID\nCodec ID/Hint                    : XviD\nDuration                         : 1h 42mn\nBit rate                         : 1 448 Kbps\nWidth                            : 640 pixels\nHeight                           : 352 pixels\nDisplay aspect ratio             : 16:9\nFrame rate                       : 25.000 fps\nResolution                       : 24 bits\nColorimetry                      : 4:2:0\nScan type                        : Progressive\nBits/(Pixel*Frame)               : 0.257\nStream size                      : 1.03 GiB (76%)\nWriting library                  : XviD 1.1.2 (UTC 2006-11-01)\n\nAudio\nID                               : 1\nFormat                           : AC-3\nFormat/Info                      : Audio Coding 3\nCodec ID                         : 2000\nDuration                         : 1h 42mn\nBit rate mode                    : Constant\nBit rate                         : 448 Kbps\nChannel(s)                       : 6 channels\nChannel positions                : Front: L C R, Surround: L R, LFE\nSampling rate                    : 48.0 KHz\nStream size                      : 328 MiB (24%)\nAlignment                        : Split accross interleaves\nInterleave, duration             : 40 ms (1.00 video frame)\nInterleave, preload duration     : 500 ms\n\nVeel plezier met deze film.","torrent":{"xt":"urn:btih:7417c1d372a88192c38b5b2b72f0ffc3f5045267","amp;dn":"Lover+of+Loser-AC3-5%2C1-DVDRip-2009+Nederlands","amp;tr":["udp%3A%2F%2Ftracker.openbittorrent.com%3A80","udp%3A%2F%2Fopen.demonii.com%3A1337","udp%3A%2F%2Ftracker.coppersurfer.tk%3A6969","udp%3A%2F%2Fexodus.desync.com%3A6969"],"infoHash":"7417c1d372a88192c38b5b2b72f0ffc3f5045267","infoHashBuffer":{"type":"Buffer","data":[116,23,193,211,114,168,129,146,195,139,91,43,114,240,255,195,245,4,82,103]},"announce":[],"urlList":[]}}